<?xml version="1.0" standalone="no"?>
<!DOCTYPE svg PUBLIC "-//W3C//DTD SVG 1.0//EN" "http://www.w3.org/TR/2001/REC-SVG-20010904/DTD/svg10.dtd">
<svg xmlns="http://www.w3.org/2000/svg" xmlns:xlink="http://www.w3.org/1999/xlink" id="body_1" width="48" height="48">

<g transform="matrix(0.19562238 0 0 0.19562238 -0 2.4095364)">
    <path d="M31.99 1.365C 21.287 7.72 0.2 31.945 0 38.298L0 38.298L0 48.814C 0 62.144 12.46 73.86 23.773 73.86C 37.357002 73.86 48.675003 62.602 48.676003 49.239998C 48.676003 62.601997 59.606003 73.86 73.191 73.86C 86.777 73.86 97.356 62.602 97.356 49.239998C 97.356 62.601997 108.978004 73.86 122.563 73.86L122.563 73.86L122.809006 73.86C 136.395 73.86 148.017 62.602 148.017 49.239998C 148.017 62.601997 158.597 73.86 172.181 73.86C 185.766 73.86 196.696 62.602 196.696 49.239998C 196.696 62.601997 208.01599 73.86 221.599 73.86C 232.912 73.86 245.372 62.146 245.372 48.814003L245.372 48.814003L245.372 38.298C 245.172 31.944 224.08499 7.7180004 213.38399 1.3650017C 180.118 0.197 157.056 -0.005 122.685 0C 88.315 0.003 41.457 0.54 31.987999 1.365L31.987999 1.365L31.99 1.365zM97.184 67.582C 95.8851 69.84627 94.276215 71.91796 92.404 73.737C 87.276 78.751 80.247 81.859 72.498 81.859C 65.04132 81.86599 57.879265 78.94846 52.550003 73.733C 50.692 71.913 49.280003 69.967 47.987003 67.701004L47.987003 67.701004L47.981003 67.705C 46.689003 69.975 44.889004 71.92 43.027004 73.742004C 37.695698 78.95363 30.534466 81.868675 23.079004 81.86201C 22.145004 81.86201 21.173004 81.604004 20.387005 81.33401C 19.295006 92.70601 18.834005 103.574005 18.671005 111.49801L18.671005 111.49801L18.669004 111.54301C 18.649004 115.56701 18.629004 118.87601 18.609005 123.47301C 18.819004 147.33301 16.246006 200.807 29.129005 213.94601C 49.093006 218.60101 85.82901 220.72101 122.684006 220.73401L122.684006 220.73401L122.69 220.73401C 159.544 220.72101 196.28 218.60101 216.244 213.94601C 229.127 200.80602 226.554 147.33202 226.764 123.472015C 226.742 118.876015 226.72401 115.56702 226.70401 111.542015L226.70401 111.542015L226.701 111.49702C 226.539 103.571014 226.078 92.70402 224.98601 81.332016C 224.20001 81.60201 223.229 81.860016 222.294 81.860016C 214.83855 81.86669 207.6773 78.951645 202.34601 73.74001C 200.48401 71.918015 198.684 69.974014 197.391 67.70301L197.391 67.70301L197.38501 67.69901C 196.091 69.96501 194.68001 71.91201 192.822 73.73101C 187.49295 78.946045 180.33125 81.86322 172.875 81.85601C 165.127 81.85601 158.097 78.74601 152.969 73.73301C 151.09679 71.91397 149.4879 69.84227 148.189 67.57801C 146.90402 69.83978 145.31001 71.911385 143.453 73.73301C 138.12244 78.947495 130.95992 81.864204 123.503006 81.85701C 123.23301 81.85701 122.963005 81.84501 122.69301 81.83701L122.69301 81.83701L122.686005 81.83701C 122.41601 81.84502 122.146 81.85701 121.873 81.85701C 114.416214 81.86447 107.25372 78.94813 101.923004 73.73401C 100.06602 71.91237 98.472015 69.84077 97.187004 67.57901zM76.698 94.072L76.696 94.082L76.711 94.082C 84.824 94.099 92.031 94.082 100.961 103.828C 107.989 103.091 115.333 102.723 122.683 102.734L122.683 102.734L122.688995 102.734C 130.039 102.724 137.383 103.091 144.41199 103.828C 153.34198 94.081 160.54898 94.09801 168.66199 94.082L168.66199 94.082L168.676 94.082L168.674 94.072C 172.50699 94.072 187.84 94.072 198.524 124.078995L198.524 124.078995L210 165.244C 218.504 195.86801 207.277 196.617 193.273 196.644C 172.50499 195.871 161.006 180.789 161.006 165.709C 149.51 167.593 136.099 168.535 122.687996 168.536L122.687996 168.536L122.682 168.536C 109.27 168.536 95.859 167.593 84.364 165.709C 84.364 180.789 72.864 195.871 52.097 196.644C 38.093002 196.617 26.867 195.869 35.371002 165.244L35.371002 165.244L46.85 124.08C 57.533997 94.073 72.867 94.073 76.7 94.073zM122.683 117.654L122.683 117.659996C 122.663 117.67999 100.82 137.73999 96.893 144.875L96.893 144.875L111.197 144.302L111.197 156.776C 111.197 157.36 116.937 157.122 122.683 156.856L122.683 156.856L122.688995 156.856C 128.433 157.12201 134.174 157.36 134.174 156.776L134.174 156.776L134.174 144.302L148.478 144.875C 144.55 137.74 122.687996 117.66 122.687996 117.66L122.687996 117.66L122.687996 117.65401L122.685 117.656006z" stroke="none" fill="#FFFFFF" fill-rule="nonzero" />
</g>
</svg>