<svg xmlns="http://www.w3.org/2000/svg" xmlns:xlink="http://www.w3.org/1999/xlink" viewBox="0,0,256,256" width="25px" height="25px"><g fill="#ffffff" fill-rule="nonzero" stroke="none" stroke-width="1" stroke-linecap="butt" stroke-linejoin="miter" stroke-miterlimit="10" stroke-dasharray="" stroke-dashoffset="0" font-family="none" font-weight="none" font-size="none" text-anchor="none" style="mix-blend-mode: normal"><g transform="scale(5.12,5.12)"><path d="M25,2c-12.69141,0 -23,10.30859 -23,23c0,12.69141 10.30859,23 23,23c12.69141,0 23,-10.30859 23,-23c0,-12.69141 -10.30859,-23 -23,-23zM25,4c11.60938,0 21,9.39063 21,21c0,11.60938 -9.39062,21 -21,21c-11.60937,0 -21,-9.39062 -21,-21c0,-11.60937 9.39063,-21 21,-21zM23.62109,10.5c-7.84766,1.86719 -16.96484,11.40625 -16.07812,18.625c4.26953,-7.53125 7.16016,-8.55469 7.94531,-8.55469c0.78906,0 1.21484,0.42578 1.21484,1.33594v11.22266c0,1.39453 -1.34766,1.22656 -2.24219,1.08984c3.3125,4.94141 11.03906,5.28125 11.03906,5.28125l3.46094,-3.76172l3.33594,2.85156c5.08203,-3.28906 8.4375,-8.86328 8.4375,-9.70703c-2.51562,2.77344 -4.67578,3.27734 -5.16016,3.27734c-0.48437,0 -1.27344,-0.05859 -1.27344,-0.72656v-13.3125c0,-1.15625 3.17969,-4.94922 4.18359,-6.22656c-6.61328,1.73438 -9.16016,5.03906 -9.16016,5.03906c0,0 -0.89062,-0.66797 -2.85156,-0.66797c0.73438,0.625 1.76172,1.75781 1.76172,3.09375v12.19141c0,0 -2.1875,1.57813 -3.46094,1.57813c-1.27344,0 -2.18359,-0.54297 -2.18359,-1.51562v-14.5625c0,0 -1.82031,1.27734 -1.82031,-2.48828c0,-1.87891 2.85156,-4.0625 2.85156,-4.0625z"></path></g></g></svg>